<svg width="504" height="317" viewBox="0 0 504 317" fill="none" xmlns="http://www.w3.org/2000/svg">
<g opacity="0.8" clip-path="url(#clip0)">
<path d="M480.609 317H54.6249C50.8366 317 47.2036 315.494 44.5249 312.813C41.8462 310.133 40.3414 306.497 40.3414 302.706C194.761 284.745 346.278 284.745 494.893 302.706C494.893 306.497 493.388 310.133 490.709 312.813C488.031 315.494 484.398 317 480.609 317Z" fill="#CCCCCC"/>
<path d="M494.893 303.546L40.3414 302.706L93.0223 213.996L93.2744 213.576V18.0698C93.2742 15.6968 93.7411 13.347 94.6484 11.1546C95.5557 8.96215 96.8857 6.97007 98.5624 5.29209C100.239 3.61411 102.23 2.28311 104.42 1.37508C106.611 0.467058 108.959 -0.00020133 111.33 -3.03635e-06H421.383C423.755 -0.00020133 426.103 0.467058 428.293 1.37508C430.484 2.28311 432.475 3.61411 434.151 5.29209C435.828 6.97007 437.158 8.96215 438.065 11.1546C438.973 13.347 439.44 15.6968 439.439 18.0698V214.921L494.893 303.546Z" fill="#E6E6E6"/>
<path d="M110.919 12.6127C109.359 12.6145 107.864 13.2352 106.762 14.3386C105.659 15.4421 105.039 16.9382 105.037 18.4987V196.759C105.039 198.319 105.659 199.815 106.762 200.919C107.864 202.022 109.359 202.643 110.919 202.645H424.316C425.875 202.643 427.37 202.022 428.472 200.919C429.575 199.815 430.195 198.319 430.197 196.759V18.4987C430.195 16.9382 429.575 15.4421 428.472 14.3387C427.37 13.2353 425.875 12.6146 424.316 12.6127H110.919Z" fill="white"/>
<path d="M112.978 226.188C112.497 226.189 112.025 226.328 111.619 226.588C111.213 226.848 110.89 227.219 110.688 227.657L94.4557 262.972C94.279 263.357 94.2017 263.779 94.2309 264.201C94.2601 264.623 94.395 265.031 94.623 265.387C94.851 265.744 95.1649 266.037 95.5358 266.24C95.9067 266.443 96.3226 266.549 96.7453 266.549H438.109C438.539 266.549 438.961 266.439 439.337 266.23C439.712 266.02 440.027 265.718 440.253 265.353C440.479 264.987 440.608 264.569 440.627 264.14C440.646 263.71 440.555 263.283 440.363 262.898L422.719 227.583C422.511 227.163 422.189 226.81 421.791 226.563C421.393 226.317 420.933 226.187 420.465 226.188L112.978 226.188Z" fill="#CCCCCC"/>
<path d="M266.357 9.66976C268.445 9.66976 270.138 7.97568 270.138 5.88594C270.138 3.79619 268.445 2.10212 266.357 2.10212C264.269 2.10212 262.576 3.79619 262.576 5.88594C262.576 7.97568 264.269 9.66976 266.357 9.66976Z" fill="white"/>
<path d="M232.804 273.276C232.25 273.277 231.711 273.46 231.271 273.797C230.831 274.134 230.515 274.607 230.37 275.142L226.298 290.278C226.198 290.651 226.184 291.043 226.259 291.423C226.334 291.803 226.496 292.161 226.731 292.468C226.966 292.775 227.269 293.024 227.616 293.196C227.963 293.367 228.345 293.456 228.732 293.456H306.168C306.57 293.456 306.966 293.36 307.323 293.176C307.68 292.991 307.988 292.724 308.221 292.397C308.454 292.069 308.606 291.69 308.663 291.292C308.72 290.894 308.681 290.488 308.549 290.108L303.314 274.973C303.143 274.478 302.821 274.048 302.394 273.744C301.967 273.44 301.457 273.276 300.933 273.276H232.804Z" fill="#CCCCCC"/>
<path d="M439.44 210.632V213.996H93.0223L93.2827 213.576V210.632H439.44Z" fill="#CCCCCC"/>
<path d="M396.681 218.337C396.546 218.337 396.415 218.382 396.308 218.464C396.201 218.546 396.124 218.661 396.088 218.792L395.097 222.477C395.072 222.568 395.069 222.664 395.087 222.756C395.106 222.849 395.145 222.936 395.202 223.011C395.26 223.086 395.333 223.146 395.418 223.188C395.502 223.23 395.595 223.251 395.689 223.251H414.546C414.644 223.251 414.741 223.228 414.828 223.183C414.915 223.138 414.99 223.073 415.046 222.993C415.103 222.914 415.14 222.821 415.154 222.725C415.168 222.628 415.158 222.529 415.126 222.436L413.851 218.751C413.81 218.63 413.731 218.525 413.627 218.451C413.523 218.377 413.399 218.337 413.271 218.337H396.681Z" fill="#CCCCCC"/>
<path d="M369.148 218.337C369.013 218.337 368.881 218.382 368.774 218.464C368.667 218.546 368.59 218.661 368.555 218.792L367.563 222.477C367.539 222.568 367.536 222.664 367.554 222.756C367.572 222.849 367.612 222.936 367.669 223.011C367.726 223.086 367.8 223.146 367.884 223.188C367.969 223.23 368.062 223.251 368.156 223.251H387.013C387.111 223.251 387.207 223.228 387.294 223.183C387.381 223.138 387.456 223.073 387.513 222.993C387.57 222.914 387.607 222.821 387.62 222.725C387.634 222.628 387.625 222.529 387.593 222.436L386.318 218.751C386.276 218.63 386.198 218.525 386.094 218.451C385.99 218.377 385.866 218.337 385.738 218.337H369.148Z" fill="#CCCCCC"/>
<path d="M289.377 241.756H290.855L287.899 44.0593H286.422L286.48 48.0034H253.356L253.415 44.0593H251.937L248.981 241.756H250.459L250.651 228.938H289.186L289.377 241.756ZM287.247 99.2763H252.59L252.951 75.1189H286.886L287.247 99.2763ZM287.269 100.755L287.63 124.913H252.206L252.567 100.755H287.269ZM287.653 126.392L288.014 150.549H251.823L252.184 126.392H287.653ZM288.036 152.028L288.397 176.186H251.44L251.801 152.028H288.036ZM288.419 177.665L288.78 201.822H251.056L251.418 177.665H288.419ZM286.503 49.4824L286.864 73.6398H252.973L253.334 49.4824H286.503ZM250.673 227.459L251.034 203.301H288.802L289.164 227.459H250.673Z" fill="#3F3D56"/>
<path d="M262.597 112.153C275.907 112.153 286.696 101.355 286.696 88.0353C286.696 74.7157 275.907 63.918 262.597 63.918C249.288 63.918 238.498 74.7157 238.498 88.0353C238.498 101.355 249.288 112.153 262.597 112.153Z" fill="#2F2E41"/>
<path d="M276.772 104.702L269.568 106.007L271.905 118.925L279.109 117.62L276.772 104.702Z" fill="#2F2E41"/>
<path d="M262.364 107.313L255.16 108.618L257.497 121.535L264.701 120.23L262.364 107.313Z" fill="#2F2E41"/>
<path d="M261.321 124.253C263.892 122.074 265.315 119.525 264.498 118.56C263.681 117.595 260.935 118.58 258.364 120.759C255.792 122.938 254.37 125.487 255.187 126.452C256.003 127.417 258.75 126.433 261.321 124.253Z" fill="#2F2E41"/>
<path d="M275.429 121.697C278 119.518 279.423 116.969 278.606 116.004C277.789 115.039 275.043 116.024 272.472 118.203C269.9 120.382 268.478 122.931 269.295 123.896C270.111 124.861 272.858 123.877 275.429 121.697Z" fill="#2F2E41"/>
<path d="M260.91 90.3787C265.459 90.3787 269.146 86.6883 269.146 82.136C269.146 77.5838 265.459 73.8934 260.91 73.8934C256.361 73.8934 252.674 77.5838 252.674 82.136C252.674 86.6883 256.361 90.3787 260.91 90.3787Z" fill="white"/>
<path d="M257.525 81.9291C259.041 81.9291 260.27 80.6989 260.27 79.1815C260.27 77.6641 259.041 76.434 257.525 76.434C256.009 76.434 254.779 77.6641 254.779 79.1815C254.779 80.6989 256.009 81.9291 257.525 81.9291Z" fill="#3F3D56"/>
<path d="M281.608 61.7983C281.97 52.8697 274.281 45.3071 264.433 44.9068C254.586 44.5065 246.309 51.42 245.946 60.3486C245.584 69.2772 252.429 71.3058 262.277 71.7061C272.124 72.1065 281.245 70.7268 281.608 61.7983Z" fill="#7159C1"/>
<path d="M252.09 86.3357C252.557 84.2978 247.677 81.4396 241.19 79.9516C234.704 78.4637 229.067 78.9095 228.6 80.9473C228.134 82.9852 233.013 85.8434 239.5 87.3314C245.986 88.8193 251.623 88.3735 252.09 86.3357Z" fill="#2F2E41"/>
<path d="M299.395 94.2085C299.862 92.1706 294.982 89.3124 288.495 87.8244C282.009 86.3365 276.372 86.7823 275.905 88.8201C275.439 90.858 280.319 93.7163 286.805 95.2042C293.292 96.6921 298.928 96.2463 299.395 94.2085Z" fill="#2F2E41"/>
<path d="M269.216 97.5396C269.346 98.2498 269.334 98.9787 269.183 99.6845C269.031 100.39 268.741 101.059 268.331 101.653C267.921 102.247 267.398 102.754 266.791 103.146C266.185 103.537 265.508 103.805 264.798 103.935C264.088 104.064 263.36 104.052 262.655 103.899C261.95 103.747 261.281 103.457 260.688 103.046C260.095 102.635 259.589 102.111 259.198 101.504C258.808 100.896 258.54 100.218 258.412 99.5079L258.41 99.4973C257.869 96.511 260.177 95.4543 263.161 94.9136C266.145 94.373 268.676 94.5533 269.216 97.5396Z" fill="white"/>
<path d="M180.975 169.947C183.411 163.569 183.764 157.779 181.763 157.014C179.763 156.249 176.167 160.798 173.731 167.176C171.296 173.553 170.943 179.343 172.943 180.108C174.944 180.873 178.54 176.324 180.975 169.947Z" fill="#2F2E41"/>
<path d="M178.904 191.191C181.09 177.713 171.944 165.014 158.476 162.827C145.009 160.64 132.32 169.792 130.134 183.27C127.949 196.748 137.095 209.447 150.562 211.634C164.03 213.821 176.719 204.668 178.904 191.191Z" fill="#2F2E41"/>
<path d="M150.767 206.633H143.262V220.09H150.767V206.633Z" fill="#2F2E41"/>
<path d="M165.777 206.633H158.272V220.09H165.777V206.633Z" fill="#2F2E41"/>
<path d="M149.516 222.594C152.97 222.594 155.77 221.543 155.77 220.246C155.77 218.95 152.97 217.899 149.516 217.899C146.062 217.899 143.262 218.95 143.262 220.246C143.262 221.543 146.062 222.594 149.516 222.594Z" fill="#2F2E41"/>
<path d="M164.526 222.281C167.98 222.281 170.78 221.23 170.78 219.933C170.78 218.637 167.98 217.586 164.526 217.586C161.072 217.586 158.272 218.637 158.272 219.933C158.272 221.23 161.072 222.281 164.526 222.281Z" fill="#2F2E41"/>
<path d="M130.556 164.239C128.561 155.299 134.937 146.265 144.798 144.062C154.658 141.858 164.269 147.319 166.263 156.26C168.258 165.2 161.723 168.497 151.863 170.7C142.002 172.904 132.55 173.179 130.556 164.239Z" fill="#7159C1"/>
<path d="M137.855 181.056C138.772 179.12 134.52 175.178 128.356 172.253C122.192 169.327 116.452 168.525 115.534 170.462C114.616 172.398 118.869 176.34 125.033 179.265C131.196 182.191 136.937 182.993 137.855 181.056Z" fill="#2F2E41"/>
<path d="M47.553 236.986C61.1967 236.986 72.2571 225.917 72.2571 212.263C72.2571 198.609 61.1967 187.54 47.553 187.54C33.9094 187.54 22.849 198.609 22.849 212.263C22.849 225.917 33.9094 236.986 47.553 236.986Z" fill="#2F2E41"/>
<path d="M43.8005 231.666H36.2955V245.123H43.8005V231.666Z" fill="#2F2E41"/>
<path d="M58.8105 231.666H51.3055V245.123H58.8105V231.666Z" fill="#2F2E41"/>
<path d="M42.5497 247.626C46.0038 247.626 48.8039 246.576 48.8039 245.279C48.8039 243.983 46.0038 242.932 42.5497 242.932C39.0956 242.932 36.2955 243.983 36.2955 245.279C36.2955 246.576 39.0956 247.626 42.5497 247.626Z" fill="#2F2E41"/>
<path d="M57.5597 247.314C61.0138 247.314 63.8139 246.263 63.8139 244.966C63.8139 243.67 61.0138 242.619 57.5597 242.619C54.1056 242.619 51.3055 243.67 51.3055 244.966C51.3055 246.263 54.1056 247.314 57.5597 247.314Z" fill="#2F2E41"/>
<path d="M48.1784 214.454C52.8415 214.454 56.6216 210.671 56.6216 206.004C56.6216 201.338 52.8415 197.555 48.1784 197.555C43.5154 197.555 39.7353 201.338 39.7353 206.004C39.7353 210.671 43.5154 214.454 48.1784 214.454Z" fill="white"/>
<path d="M48.1784 208.821C49.7328 208.821 50.9928 207.56 50.9928 206.004C50.9928 204.449 49.7328 203.188 48.1784 203.188C46.6241 203.188 45.364 204.449 45.364 206.004C45.364 207.56 46.6241 208.821 48.1784 208.821Z" fill="#3F3D56"/>
<path d="M23.5893 189.272C21.5946 180.332 27.9709 171.298 37.8313 169.095C47.6917 166.891 57.3022 172.352 59.2969 181.293C61.2916 190.233 54.7568 193.53 44.8964 195.733C35.036 197.937 25.584 198.212 23.5893 189.272Z" fill="#E6E6E6"/>
<path d="M65.5659 123.94C68.0015 117.563 68.3542 111.773 66.3538 111.008C64.3534 110.243 60.7573 114.792 58.3217 121.169C55.8861 127.546 55.5333 133.336 57.5338 134.102C59.5342 134.867 63.1303 130.317 65.5659 123.94Z" fill="#2F2E41"/>
<path d="M63.4949 145.184C65.6804 131.707 56.5345 119.008 43.067 116.821C29.5995 114.633 16.9103 123.786 14.7249 137.264C12.5394 150.742 21.6853 163.441 35.1527 165.628C48.6202 167.815 61.3094 158.662 63.4949 145.184Z" fill="#2F2E41"/>
<path d="M35.3574 160.627H27.8524V174.084H35.3574V160.627Z" fill="#2F2E41"/>
<path d="M50.3674 160.627H42.8624V174.084H50.3674V160.627Z" fill="#2F2E41"/>
<path d="M34.1065 176.587C37.5606 176.587 40.3607 175.536 40.3607 174.24C40.3607 172.944 37.5606 171.893 34.1065 171.893C30.6525 171.893 27.8524 172.944 27.8524 174.24C27.8524 175.536 30.6525 176.587 34.1065 176.587Z" fill="#2F2E41"/>
<path d="M49.1166 176.274C52.5707 176.274 55.3707 175.224 55.3707 173.927C55.3707 172.631 52.5707 171.58 49.1166 171.58C45.6625 171.58 42.8624 172.631 42.8624 173.927C42.8624 175.224 45.6625 176.274 49.1166 176.274Z" fill="#2F2E41"/>
<path d="M39.7353 143.415C44.3983 143.415 48.1784 139.632 48.1784 134.965C48.1784 130.299 44.3983 126.516 39.7353 126.516C35.0723 126.516 31.2922 130.299 31.2922 134.965C31.2922 139.632 35.0723 143.415 39.7353 143.415Z" fill="white"/>
<path d="M39.7353 137.782C41.2896 137.782 42.5497 136.521 42.5497 134.965C42.5497 133.41 41.2896 132.149 39.7353 132.149C38.1809 132.149 36.9209 133.41 36.9209 134.965C36.9209 136.521 38.1809 137.782 39.7353 137.782Z" fill="#3F3D56"/>
<path d="M15.1462 118.233C13.1514 109.292 19.5278 100.259 29.3882 98.0553C39.2486 95.8518 48.8591 101.313 50.8538 110.253C52.8485 119.193 46.3137 122.491 36.4533 124.694C26.5929 126.897 17.1409 127.173 15.1462 118.233Z" fill="#7159C1"/>
<path d="M22.4453 135.05C23.363 133.113 19.1103 129.172 12.9466 126.246C6.78292 123.321 1.04227 122.519 0.124542 124.455C-0.793187 126.392 3.45953 130.333 9.62324 133.259C15.787 136.184 21.5276 136.986 22.4453 135.05Z" fill="#2F2E41"/>
<path d="M26.9753 150.143C26.9753 152.563 33.2009 157.341 40.1091 157.341C47.0173 157.341 53.4945 150.529 53.4945 148.109C53.4945 145.689 47.0172 148.578 40.1091 148.578C33.201 148.578 26.9753 147.723 26.9753 150.143Z" fill="white"/>
<path d="M63.3979 46.8247C62.9417 46.8252 62.5043 47.0068 62.1817 47.3296C61.859 47.6525 61.6776 48.0903 61.6771 48.5468V119.729C61.6776 120.186 61.859 120.624 62.1817 120.947C62.5043 121.269 62.9417 121.451 63.3979 121.451H228.025C228.481 121.451 228.919 121.269 229.241 120.947C229.564 120.624 229.745 120.186 229.746 119.729V48.5468C229.745 48.0903 229.564 47.6525 229.241 47.3296C228.919 47.0068 228.481 46.8252 228.025 46.8247H63.3979Z" fill="#7159C1"/>
<path d="M107.85 100.855C117.075 100.855 124.554 93.3706 124.554 84.1381C124.554 74.9055 117.075 67.421 107.85 67.421C98.6243 67.421 91.1455 74.9055 91.1455 84.1381C91.1455 93.3706 98.6243 100.855 107.85 100.855Z" fill="white"/>
<path d="M145.551 81.9139C145.038 81.9223 144.55 82.132 144.19 82.4976C143.831 82.8632 143.63 83.3556 143.63 83.8684C143.63 84.3813 143.831 84.8737 144.19 85.2393C144.55 85.6049 145.038 85.8145 145.551 85.823H198.292C198.549 85.8274 198.804 85.7812 199.042 85.6869C199.281 85.5927 199.499 85.4523 199.683 85.2738C199.868 85.0952 200.015 84.8821 200.118 84.6464C200.22 84.4108 200.274 84.1574 200.279 83.9006C200.283 83.6437 200.236 83.3886 200.142 83.1498C200.048 82.9109 199.907 82.693 199.729 82.5085C199.55 82.324 199.337 82.1765 199.102 82.0745C198.866 81.9725 198.613 81.9179 198.356 81.9139C198.335 81.9135 198.313 81.9135 198.292 81.9139H145.551Z" fill="white"/>
<path d="M145.551 70.5894C145.038 70.5979 144.55 70.8075 144.19 71.1731C143.831 71.5388 143.63 72.0311 143.63 72.544C143.63 73.0569 143.831 73.5492 144.19 73.9149C144.55 74.2805 145.038 74.4901 145.551 74.4985H171.889C172.145 74.503 172.4 74.4567 172.639 74.3625C172.878 74.2683 173.095 74.1279 173.28 73.9493C173.464 73.7708 173.612 73.5576 173.714 73.322C173.816 73.0864 173.871 72.8329 173.875 72.5761C173.879 72.3193 173.833 72.0642 173.739 71.8253C173.644 71.5865 173.504 71.3686 173.325 71.1841C173.147 70.9996 172.934 70.8521 172.698 70.75C172.463 70.648 172.209 70.5934 171.953 70.5894C171.931 70.5891 171.91 70.5891 171.889 70.5894H145.551Z" fill="white"/>
<path d="M145.551 93.7776C145.038 93.786 144.55 93.9957 144.19 94.3613C143.831 94.7269 143.63 95.2193 143.63 95.7322C143.63 96.2451 143.831 96.7374 144.19 97.103C144.55 97.4687 145.038 97.6783 145.551 97.6867H198.292C198.549 97.6911 198.804 97.6449 199.042 97.5507C199.281 97.4564 199.499 97.316 199.683 97.1375C199.868 96.959 200.015 96.7458 200.118 96.5102C200.22 96.2745 200.274 96.0211 200.279 95.7643C200.283 95.5075 200.236 95.2523 200.142 95.0135C200.048 94.7746 199.907 94.5567 199.729 94.3722C199.55 94.1877 199.337 94.0403 199.102 93.9382C198.866 93.8362 198.613 93.7816 198.356 93.7776C198.335 93.7772 198.313 93.7772 198.292 93.7776H145.551Z" fill="white"/>
<path d="M401.696 225.444C403.697 224.679 403.344 218.889 400.908 212.512C398.473 206.135 394.877 201.586 392.876 202.351C390.876 203.116 391.229 208.906 393.664 215.283C396.1 221.66 399.696 226.21 401.696 225.444Z" fill="#2F2E41"/>
<path d="M418.915 262.137C432.382 259.95 441.528 247.251 439.343 233.773C437.157 220.295 424.468 211.143 411.001 213.33C397.533 215.517 388.387 228.216 390.573 241.694C392.758 255.171 405.447 264.324 418.915 262.137Z" fill="#2F2E41"/>
<path d="M426.215 257.136H418.71L420.179 273.252L426.228 271.607L426.215 257.136Z" fill="#2F2E41"/>
<path d="M409.854 257.178H402.349L403.817 273.294L409.593 271.607L409.854 257.178Z" fill="#2F2E41"/>
<path d="M403.604 274.051C407.049 273.799 409.765 272.546 409.67 271.253C409.576 269.961 406.707 269.117 403.262 269.369C399.817 269.621 397.101 270.873 397.195 272.166C397.29 273.459 400.159 274.303 403.604 274.051Z" fill="#2F2E41"/>
<path d="M414.332 239.924C418.995 239.924 422.775 236.141 422.775 231.474C422.775 226.808 418.995 223.025 414.332 223.025C409.669 223.025 405.889 226.808 405.889 231.474C405.889 236.141 409.669 239.924 414.332 239.924Z" fill="white"/>
<path d="M414.332 234.291C415.887 234.291 417.147 233.03 417.147 231.474C417.147 229.919 415.887 228.658 414.332 228.658C412.778 228.658 411.518 229.919 411.518 231.474C411.518 233.03 412.778 234.291 414.332 234.291Z" fill="#3F3D56"/>
<path d="M444.181 222.827C448.234 217.335 450.123 211.852 448.4 210.578C446.678 209.305 441.996 212.724 437.943 218.216C433.89 223.707 432.001 229.191 433.723 230.465C435.446 231.738 440.128 228.318 444.181 222.827Z" fill="#2F2E41"/>
<path d="M402.904 250.481C402.904 248.487 408.035 244.549 413.729 244.549C419.423 244.549 424.761 250.163 424.761 252.158C424.761 254.152 419.423 251.771 413.729 251.771C408.035 251.771 402.904 252.475 402.904 250.481Z" fill="white"/>
<path d="M484.231 217.303L349.004 198.542C347.95 198.394 346.997 197.834 346.355 196.985C345.713 196.135 345.434 195.065 345.579 194.01L360.78 84.2674C360.928 83.2123 361.487 82.2588 362.336 81.616C363.185 80.9733 364.254 80.6938 365.309 80.8389L500.536 99.5995C501.59 99.747 502.543 100.307 503.185 101.157C503.827 102.006 504.107 103.076 503.962 104.132L488.76 213.874C488.612 214.929 488.053 215.883 487.204 216.525C486.355 217.168 485.286 217.448 484.231 217.303Z" fill="#7159C1"/>
<path d="M435.787 183.053L366.75 173.476C366.663 173.465 366.578 173.446 366.495 173.419L406.987 121.349C407.235 121.024 407.565 120.771 407.942 120.616C408.32 120.46 408.733 120.408 409.137 120.464C409.542 120.52 409.925 120.683 410.246 120.935C410.567 121.188 410.816 121.521 410.966 121.901L427.618 162.924L428.416 164.888L435.787 183.053Z" fill="white"/>
<path opacity="0.2" d="M435.787 183.053L412.216 179.783L426.117 164.569L427.118 163.473L427.618 162.925L428.416 164.888L435.787 183.053Z" fill="black"/>
<path d="M474.226 188.386L414.515 180.102L428.416 164.888L429.416 163.792L447.531 143.964C447.844 143.666 448.216 143.437 448.623 143.293C449.03 143.148 449.463 143.091 449.893 143.124C450.324 143.158 450.743 143.282 451.122 143.488C451.502 143.694 451.834 143.978 452.097 144.321C452.163 144.417 452.223 144.518 452.277 144.622L474.226 188.386Z" fill="white"/>
<path d="M436.627 139.026C442.329 139.026 446.952 134.4 446.952 128.693C446.952 122.986 442.329 118.36 436.627 118.36C430.924 118.36 426.302 122.986 426.302 128.693C426.302 134.4 430.924 139.026 436.627 139.026Z" fill="white"/>
<path d="M380.116 91.0092L367.616 89.275L365.883 101.785L378.383 103.519L380.116 91.0092Z" fill="#3F3D56"/>
<path d="M438.921 214.742C440.916 205.802 434.54 196.768 424.679 194.565C414.819 192.361 405.209 197.822 403.214 206.762C401.219 215.703 407.754 219 417.614 221.203C427.475 223.407 436.927 223.682 438.921 214.742Z" fill="#F2F2F2"/>
<path d="M420.062 274.011C423.507 273.759 426.223 272.507 426.129 271.214C426.034 269.921 423.165 269.077 419.72 269.329C416.275 269.581 413.559 270.834 413.654 272.127C413.748 273.419 416.617 274.263 420.062 274.011Z" fill="#2F2E41"/>
</g>
<defs>
<clipPath id="clip0">
<rect width="504" height="317" fill="white"/>
</clipPath>
</defs>
</svg>
